<mxfile host="app.diagrams.net" agent="Mozilla/5.0 (X11; Linux x86_64) AppleWebKit/537.36 (KHTML, like Gecko) Chrome/137.0.0.0 Safari/537.36" version="27.1.6">
  <diagram name="Page-1" id="aAzzA9po3lAYLy4jhr-3">
    <mxGraphModel dx="872" dy="447" grid="1" gridSize="10" guides="1" tooltips="1" connect="1" arrows="1" fold="1" page="1" pageScale="1" pageWidth="850" pageHeight="1100" math="0" shadow="0">
      <root>
        <mxCell id="0" />
        <mxCell id="1" parent="0" />
        <mxCell id="jo6G4mLyNM97ClRF_lXY-1" value="" style="rounded=0;whiteSpace=wrap;html=1;" vertex="1" parent="1">
          <mxGeometry x="70" y="90" width="110" height="270" as="geometry" />
        </mxCell>
        <mxCell id="jo6G4mLyNM97ClRF_lXY-2" value="" style="rounded=0;whiteSpace=wrap;html=1;" vertex="1" parent="1">
          <mxGeometry x="200" y="90" width="110" height="270" as="geometry" />
        </mxCell>
        <mxCell id="jo6G4mLyNM97ClRF_lXY-3" value="" style="rounded=0;whiteSpace=wrap;html=1;" vertex="1" parent="1">
          <mxGeometry x="330" y="90" width="470" height="270" as="geometry" />
        </mxCell>
        <mxCell id="jo6G4mLyNM97ClRF_lXY-4" value="" style="sketch=0;outlineConnect=0;fontColor=#232F3E;gradientColor=none;fillColor=#7AA116;strokeColor=none;dashed=0;verticalLabelPosition=bottom;verticalAlign=top;align=center;html=1;fontSize=12;fontStyle=0;aspect=fixed;pointerEvents=1;shape=mxgraph.aws4.bucket_with_objects;" vertex="1" parent="1">
          <mxGeometry x="100" y="201.6" width="45" height="46.8" as="geometry" />
        </mxCell>
        <mxCell id="jo6G4mLyNM97ClRF_lXY-5" value="" style="outlineConnect=0;dashed=0;verticalLabelPosition=bottom;verticalAlign=top;align=center;html=1;shape=mxgraph.aws3.lambda_function;fillColor=#F58534;gradientColor=none;" vertex="1" parent="1">
          <mxGeometry x="230.5" y="201.6" width="49" height="52" as="geometry" />
        </mxCell>
        <mxCell id="jo6G4mLyNM97ClRF_lXY-6" value="AWS Step Functions workflow" style="points=[[0,0],[0.25,0],[0.5,0],[0.75,0],[1,0],[1,0.25],[1,0.5],[1,0.75],[1,1],[0.75,1],[0.5,1],[0.25,1],[0,1],[0,0.75],[0,0.5],[0,0.25]];outlineConnect=0;gradientColor=none;html=1;whiteSpace=wrap;fontSize=12;fontStyle=0;container=1;pointerEvents=0;collapsible=0;recursiveResize=0;shape=mxgraph.aws4.group;grIcon=mxgraph.aws4.group_aws_step_functions_workflow;strokeColor=#CD2264;fillColor=none;verticalAlign=top;align=left;spacingLeft=30;fontColor=#CD2264;dashed=0;" vertex="1" parent="1">
          <mxGeometry x="350" y="110" width="430" height="240" as="geometry" />
        </mxCell>
        <mxCell id="jo6G4mLyNM97ClRF_lXY-10" value="" style="sketch=0;outlineConnect=0;fontColor=#232F3E;gradientColor=none;fillColor=#F58534;strokeColor=none;dashed=0;verticalLabelPosition=bottom;verticalAlign=top;align=center;html=1;fontSize=12;fontStyle=0;aspect=fixed;pointerEvents=1;shape=mxgraph.aws3.athena;" vertex="1" parent="jo6G4mLyNM97ClRF_lXY-6">
          <mxGeometry x="320" y="130" width="77" height="77" as="geometry" />
        </mxCell>
        <mxCell id="jo6G4mLyNM97ClRF_lXY-11" value="" style="sketch=0;outlineConnect=0;fontColor=#232F3E;gradientColor=none;fillColor=#8C4FFF;strokeColor=none;dashed=0;verticalLabelPosition=bottom;verticalAlign=top;align=center;html=1;fontSize=12;fontStyle=0;aspect=fixed;pointerEvents=1;shape=mxgraph.aws4.glue_crawlers;" vertex="1" parent="jo6G4mLyNM97ClRF_lXY-6">
          <mxGeometry x="190" y="70" width="48" height="48" as="geometry" />
        </mxCell>
        <mxCell id="jo6G4mLyNM97ClRF_lXY-25" value="Crawler" style="text;strokeColor=none;align=center;fillColor=none;html=1;verticalAlign=middle;whiteSpace=wrap;rounded=0;" vertex="1" parent="jo6G4mLyNM97ClRF_lXY-6">
          <mxGeometry x="184" y="40.00000000000003" width="60" height="30" as="geometry" />
        </mxCell>
        <mxCell id="jo6G4mLyNM97ClRF_lXY-26" value="Glue Catalog" style="text;strokeColor=none;align=center;fillColor=none;html=1;verticalAlign=middle;whiteSpace=wrap;rounded=0;" vertex="1" parent="jo6G4mLyNM97ClRF_lXY-6">
          <mxGeometry x="360" y="20.00000000000003" width="60" height="30" as="geometry" />
        </mxCell>
        <mxCell id="jo6G4mLyNM97ClRF_lXY-27" value="Athena" style="text;strokeColor=none;align=center;fillColor=none;html=1;verticalAlign=middle;whiteSpace=wrap;rounded=0;" vertex="1" parent="jo6G4mLyNM97ClRF_lXY-6">
          <mxGeometry x="328.5" y="200.00000000000003" width="60" height="30" as="geometry" />
        </mxCell>
        <mxCell id="jo6G4mLyNM97ClRF_lXY-7" value="" style="sketch=0;points=[[0,0,0],[0.25,0,0],[0.5,0,0],[0.75,0,0],[1,0,0],[0,1,0],[0.25,1,0],[0.5,1,0],[0.75,1,0],[1,1,0],[0,0.25,0],[0,0.5,0],[0,0.75,0],[1,0.25,0],[1,0.5,0],[1,0.75,0]];outlineConnect=0;fontColor=#232F3E;fillColor=#8C4FFF;strokeColor=#ffffff;dashed=0;verticalLabelPosition=bottom;verticalAlign=top;align=center;html=1;fontSize=12;fontStyle=0;aspect=fixed;shape=mxgraph.aws4.resourceIcon;resIcon=mxgraph.aws4.glue;" vertex="1" parent="1">
          <mxGeometry x="370" y="210" width="48" height="48" as="geometry" />
        </mxCell>
        <mxCell id="jo6G4mLyNM97ClRF_lXY-8" value="" style="sketch=0;outlineConnect=0;fontColor=#232F3E;gradientColor=none;fillColor=#7AA116;strokeColor=none;dashed=0;verticalLabelPosition=bottom;verticalAlign=top;align=center;html=1;fontSize=12;fontStyle=0;aspect=fixed;pointerEvents=1;shape=mxgraph.aws4.bucket_with_objects;" vertex="1" parent="1">
          <mxGeometry x="460" y="260" width="55.38" height="57.6" as="geometry" />
        </mxCell>
        <mxCell id="jo6G4mLyNM97ClRF_lXY-9" value="" style="sketch=0;outlineConnect=0;fontColor=#232F3E;gradientColor=none;fillColor=#8C4FFF;strokeColor=none;dashed=0;verticalLabelPosition=bottom;verticalAlign=top;align=center;html=1;fontSize=12;fontStyle=0;aspect=fixed;pointerEvents=1;shape=mxgraph.aws4.glue_data_catalog;" vertex="1" parent="1">
          <mxGeometry x="670" y="120" width="42" height="45.5" as="geometry" />
        </mxCell>
        <mxCell id="jo6G4mLyNM97ClRF_lXY-12" value="" style="edgeStyle=orthogonalEdgeStyle;html=1;endArrow=block;elbow=vertical;startArrow=none;endFill=1;strokeColor=#545B64;rounded=0;exitX=1;exitY=0.5;exitDx=0;exitDy=0;exitPerimeter=0;" edge="1" parent="1" source="jo6G4mLyNM97ClRF_lXY-7" target="jo6G4mLyNM97ClRF_lXY-8">
          <mxGeometry width="100" relative="1" as="geometry">
            <mxPoint x="380" y="240" as="sourcePoint" />
            <mxPoint x="480" y="240" as="targetPoint" />
          </mxGeometry>
        </mxCell>
        <mxCell id="jo6G4mLyNM97ClRF_lXY-13" value="" style="edgeStyle=orthogonalEdgeStyle;html=1;endArrow=block;elbow=vertical;startArrow=none;endFill=1;strokeColor=#545B64;rounded=0;" edge="1" parent="1" source="jo6G4mLyNM97ClRF_lXY-8" target="jo6G4mLyNM97ClRF_lXY-11">
          <mxGeometry width="100" relative="1" as="geometry">
            <mxPoint x="380" y="240" as="sourcePoint" />
            <mxPoint x="480" y="240" as="targetPoint" />
          </mxGeometry>
        </mxCell>
        <mxCell id="jo6G4mLyNM97ClRF_lXY-14" value="" style="edgeStyle=orthogonalEdgeStyle;html=1;endArrow=block;elbow=vertical;startArrow=none;endFill=1;strokeColor=#545B64;rounded=0;" edge="1" parent="1" source="jo6G4mLyNM97ClRF_lXY-11" target="jo6G4mLyNM97ClRF_lXY-9">
          <mxGeometry width="100" relative="1" as="geometry">
            <mxPoint x="380" y="240" as="sourcePoint" />
            <mxPoint x="480" y="240" as="targetPoint" />
          </mxGeometry>
        </mxCell>
        <mxCell id="jo6G4mLyNM97ClRF_lXY-15" value="" style="edgeStyle=orthogonalEdgeStyle;html=1;endArrow=block;elbow=vertical;startArrow=none;endFill=1;strokeColor=#545B64;rounded=0;" edge="1" parent="1" source="jo6G4mLyNM97ClRF_lXY-9" target="jo6G4mLyNM97ClRF_lXY-10">
          <mxGeometry width="100" relative="1" as="geometry">
            <mxPoint x="380" y="240" as="sourcePoint" />
            <mxPoint x="480" y="240" as="targetPoint" />
            <Array as="points">
              <mxPoint x="700" y="203" />
              <mxPoint x="709" y="203" />
            </Array>
          </mxGeometry>
        </mxCell>
        <mxCell id="jo6G4mLyNM97ClRF_lXY-16" value="" style="edgeStyle=orthogonalEdgeStyle;html=1;endArrow=block;elbow=vertical;startArrow=none;endFill=1;strokeColor=#545B64;rounded=0;" edge="1" parent="1" source="jo6G4mLyNM97ClRF_lXY-5" target="jo6G4mLyNM97ClRF_lXY-6">
          <mxGeometry width="100" relative="1" as="geometry">
            <mxPoint x="380" y="240" as="sourcePoint" />
            <mxPoint x="480" y="240" as="targetPoint" />
          </mxGeometry>
        </mxCell>
        <mxCell id="jo6G4mLyNM97ClRF_lXY-17" value="" style="edgeStyle=orthogonalEdgeStyle;html=1;endArrow=block;elbow=vertical;startArrow=none;endFill=1;strokeColor=#545B64;rounded=0;" edge="1" parent="1" source="jo6G4mLyNM97ClRF_lXY-4">
          <mxGeometry width="100" relative="1" as="geometry">
            <mxPoint x="380" y="240" as="sourcePoint" />
            <mxPoint x="220" y="230" as="targetPoint" />
          </mxGeometry>
        </mxCell>
        <mxCell id="jo6G4mLyNM97ClRF_lXY-18" value="&lt;b&gt;Data Source&lt;/b&gt;" style="text;strokeColor=none;align=center;fillColor=none;html=1;verticalAlign=middle;whiteSpace=wrap;rounded=0;" vertex="1" parent="1">
          <mxGeometry x="80" y="60" width="77.5" height="30" as="geometry" />
        </mxCell>
        <mxCell id="jo6G4mLyNM97ClRF_lXY-19" value="&lt;b&gt;Event Notification&lt;/b&gt;" style="text;strokeColor=none;align=center;fillColor=none;html=1;verticalAlign=middle;whiteSpace=wrap;rounded=0;" vertex="1" parent="1">
          <mxGeometry x="200" y="50" width="90.5" height="30" as="geometry" />
        </mxCell>
        <mxCell id="jo6G4mLyNM97ClRF_lXY-20" value="&lt;b&gt;Data Processing&lt;/b&gt;" style="text;strokeColor=none;align=center;fillColor=none;html=1;verticalAlign=middle;whiteSpace=wrap;rounded=0;" vertex="1" parent="1">
          <mxGeometry x="510" y="50" width="90.5" height="30" as="geometry" />
        </mxCell>
        <mxCell id="jo6G4mLyNM97ClRF_lXY-21" value="raw data" style="text;strokeColor=none;align=center;fillColor=none;html=1;verticalAlign=middle;whiteSpace=wrap;rounded=0;" vertex="1" parent="1">
          <mxGeometry x="95" y="253.6" width="60" height="30" as="geometry" />
        </mxCell>
        <mxCell id="jo6G4mLyNM97ClRF_lXY-22" value="lambda Function" style="text;strokeColor=none;align=center;fillColor=none;html=1;verticalAlign=middle;whiteSpace=wrap;rounded=0;" vertex="1" parent="1">
          <mxGeometry x="225" y="260" width="60" height="30" as="geometry" />
        </mxCell>
        <mxCell id="jo6G4mLyNM97ClRF_lXY-23" value="ETL Glue Job" style="text;strokeColor=none;align=center;fillColor=none;html=1;verticalAlign=middle;whiteSpace=wrap;rounded=0;" vertex="1" parent="1">
          <mxGeometry x="370" y="260" width="60" height="30" as="geometry" />
        </mxCell>
        <mxCell id="jo6G4mLyNM97ClRF_lXY-24" value="Delta Table" style="text;strokeColor=none;align=center;fillColor=none;html=1;verticalAlign=middle;whiteSpace=wrap;rounded=0;" vertex="1" parent="1">
          <mxGeometry x="455.38" y="317.6" width="60" height="30" as="geometry" />
        </mxCell>
      </root>
    </mxGraphModel>
  </diagram>
</mxfile>
